# xmcd CD database file
#
# Track frame offsets:
#	150
#	16647
#	31372
#	60460
#	79010
#	93502
#	107917
#	124972
#	133025
#	160173
#
# Disc length: 2417 seconds
#
# Revision: 1
# Processed by: cddbd v1.5.2PL0 Copyright (c) Steve Scherf et al.
# Submitted via: CDex 1.51
#
DISCID=78096f0a
DTITLE=Sui Generis - Confesiones de Invierno
DYEAR=1973
DGENRE=Rock Argentino
TTITLE0=Cuando ya me empiece a quedar solo
TTITLE1=Bienvenidos al tren
TTITLE2=Un hada, un cisne
TTITLE3=Confesiones de invierno
TTITLE4=Rasguña las piedras
TTITLE5=Lunes otra vez
TTITLE6=Aprendizaje
TTITLE7=Mr. Jones o pequeña semblanza de una familia tipo americana
TTITLE8=Tribulaciones, lamento y ocaso de un tonto rey imaginario, o no
TTITLE9=Alto en la torre
EXTD=YEAR: 1973
EXTT0=
EXTT1=
EXTT2=
EXTT3=
EXTT4=
EXTT5=
EXTT6=
EXTT7=
EXTT8=
EXTT9=
PLAYORDER=
